<svg width="74" height="79" viewBox="0 0 74 79" fill="none" xmlns="http://www.w3.org/2000/svg">
<g filter="url(#filter0_d)">
<circle cx="37" cy="27" r="27" fill="white"/>
</g>
<path d="M42.3998 36.9999C38.3171 36.9946 34.4032 35.3704 31.5162 32.4835C28.6293 29.5966 27.0051 25.6826 26.9998 21.5999C26.9998 20.3799 27.4845 19.2098 28.3472 18.3472C29.2098 17.4845 30.3799 16.9999 31.5998 16.9999C31.8582 16.9979 32.1161 17.0213 32.3698 17.0699C32.6152 17.1062 32.8563 17.1665 33.0898 17.2499C33.2541 17.3075 33.4005 17.407 33.5145 17.5385C33.6285 17.6701 33.7061 17.8291 33.7398 17.9999L35.1098 23.9999C35.1468 24.1627 35.1423 24.3323 35.0969 24.493C35.0515 24.6537 34.9666 24.8004 34.8498 24.9199C34.7198 25.0599 34.7098 25.0699 33.4798 25.7099C34.4648 27.8707 36.193 29.606 38.3498 30.5999C38.9998 29.3599 39.0098 29.3499 39.1498 29.2199C39.2693 29.1032 39.4161 29.0182 39.5768 28.9728C39.7375 28.9274 39.907 28.9229 40.0698 28.9599L46.0698 30.3299C46.2352 30.3682 46.388 30.448 46.5139 30.5617C46.6399 30.6754 46.7348 30.8193 46.7898 30.9799C46.8742 31.2172 46.9378 31.4615 46.9798 31.7099C47.0201 31.9612 47.0402 32.2153 47.0398 32.4699C47.0214 33.6847 46.5231 34.8428 45.6538 35.6915C44.7845 36.5402 43.6147 37.0106 42.3998 36.9999ZM31.5998 18.9999C30.9111 19.0025 30.2513 19.2773 29.7643 19.7643C29.2773 20.2513 29.0025 20.9111 28.9998 21.5999C29.0025 25.153 30.4151 28.5598 32.9275 31.0722C35.44 33.5846 38.8468 34.9972 42.3998 34.9999C43.0886 34.9972 43.7484 34.7225 44.2354 34.2354C44.7224 33.7484 44.9972 33.0886 44.9998 32.3999V32.0699L40.3598 30.9999L40.0698 31.5499C39.6198 32.4199 39.2898 33.0499 38.4498 32.7099C36.7927 32.1167 35.2885 31.1619 34.0466 29.9148C32.8046 28.6676 31.8561 27.1594 31.2698 25.4999C30.9098 24.7199 31.5898 24.3599 32.4498 23.9099L32.9998 23.6399L31.9298 18.9999H31.5998Z" fill="#48A9FE"/>
<circle cx="37" cy="27" r="22.5" stroke="#48A9FE"/>
<defs>
<filter id="filter0_d" x="0" y="0" width="74" height="79" filterUnits="userSpaceOnUse" color-interpolation-filters="sRGB">
<feFlood flood-opacity="0" result="BackgroundImageFix"/>
<feColorMatrix in="SourceAlpha" type="matrix" values="0 0 0 0 0 0 0 0 0 0 0 0 0 0 0 0 0 0 127 0"/>
<feOffset dy="15"/>
<feGaussianBlur stdDeviation="5"/>
<feColorMatrix type="matrix" values="0 0 0 0 0 0 0 0 0 0 0 0 0 0 0.054902 0 0 0 0.1 0"/>
<feBlend mode="normal" in2="BackgroundImageFix" result="effect1_dropShadow"/>
<feBlend mode="normal" in="SourceGraphic" in2="effect1_dropShadow" result="shape"/>
</filter>
</defs>
</svg>
