<svg width="74" height="79" viewBox="0 0 74 79" fill="none" xmlns="http://www.w3.org/2000/svg">
<g filter="url(#filter0_d)">
<circle cx="37" cy="27" r="27" fill="white"/>
</g>
<path d="M48.0468 21.1406V33.7114C48.0459 34.5449 47.7147 35.3439 47.1257 35.9336C46.5367 36.5232 45.738 36.8553 44.9046 36.8571H28.1423C27.3095 36.8553 26.5112 36.5237 25.9223 35.9348C25.3334 35.3459 25.0018 34.5477 25 33.7148V21.144C25.0014 20.3109 25.3328 19.5122 25.9217 18.923C26.5107 18.3337 27.3092 18.0018 28.1423 18H44.9046C45.7371 18.0018 46.535 18.3332 47.1238 18.9218C47.7127 19.5103 48.0445 20.308 48.0468 21.1406ZM45.8389 20.676C45.7518 20.5021 45.6182 20.3558 45.453 20.2532C45.2878 20.1506 45.0973 20.0958 44.9028 20.0948H28.1405C27.946 20.0958 27.7557 20.1506 27.5905 20.2532C27.4253 20.3558 27.2917 20.5021 27.2046 20.676L36.5217 27.1903L45.8389 20.676ZM45.9503 23.1566L37.1235 29.328C36.9475 29.4509 36.738 29.5169 36.5234 29.5169C36.3088 29.5169 36.0994 29.4509 35.9234 29.328L27.0948 23.1566V33.7148C27.0966 33.9921 27.2076 34.2574 27.4036 34.4535C27.5996 34.6495 27.8651 34.7605 28.1423 34.7623H44.9046C45.1819 34.7605 45.4472 34.6495 45.6432 34.4535C45.8393 34.2574 45.9502 33.9921 45.952 33.7148L45.9503 23.1566Z" fill="#48A9FE"/>
<circle cx="37" cy="27" r="22.5" stroke="#48A9FE"/>
<defs>
<filter id="filter0_d" x="0" y="0" width="74" height="79" filterUnits="userSpaceOnUse" color-interpolation-filters="sRGB">
<feFlood flood-opacity="0" result="BackgroundImageFix"/>
<feColorMatrix in="SourceAlpha" type="matrix" values="0 0 0 0 0 0 0 0 0 0 0 0 0 0 0 0 0 0 127 0"/>
<feOffset dy="15"/>
<feGaussianBlur stdDeviation="5"/>
<feColorMatrix type="matrix" values="0 0 0 0 0 0 0 0 0 0 0 0 0 0 0.054902 0 0 0 0.1 0"/>
<feBlend mode="normal" in2="BackgroundImageFix" result="effect1_dropShadow"/>
<feBlend mode="normal" in="SourceGraphic" in2="effect1_dropShadow" result="shape"/>
</filter>
</defs>
</svg>
